<?xml version="1.0" encoding="UTF-8"?>
<svg id="Star_Icon-2" data-name="Star Icon-2" xmlns="http://www.w3.org/2000/svg" viewBox="0 0 1920 1920">
  <defs>
    <style>
      .cls-1 {
        fill: #583593;
      }

      .cls-2 {
        fill: #c5fbf0;
      }
    </style>
  </defs>
  <path class="cls-2" d="M960,1744.79c-44.73,0-84.96-26.59-102.49-67.73l-57.83-135.69c-78.46-184.09-220.59-334.06-400.21-422.28l-120.32-59.09c-38.43-18.87-62.3-57.19-62.3-100s23.87-81.13,62.3-100l120.32-59.09c179.62-88.22,321.75-238.18,400.21-422.28l57.83-135.69c17.54-41.14,57.77-67.73,102.49-67.73s84.96,26.59,102.49,67.73l57.83,135.69c78.46,184.09,220.59,334.06,400.21,422.28l120.32,59.09c38.43,18.87,62.3,57.19,62.3,100s-23.87,81.13-62.3,100l-120.32,59.09c-179.62,88.22-321.75,238.19-400.21,422.28l-57.83,135.69c-17.54,41.15-57.77,67.73-102.49,67.73Z"/>
  <path class="cls-1" d="M960,245.21c15.47,0,30.94,8.39,38.1,25.18l57.83,135.69c85.07,199.6,238.99,362.02,433.75,457.67l120.32,59.09c30.87,15.16,30.87,59.18,0,74.34l-120.32,59.09c-194.76,95.65-348.68,258.06-433.75,457.67l-57.83,135.69c-7.15,16.78-22.62,25.18-38.1,25.18s-30.94-8.39-38.1-25.18l-57.83-135.69c-85.07-199.6-238.99-362.02-433.75-457.67l-120.32-59.09c-30.87-15.16-30.87-59.18,0-74.34l120.32-59.09c194.76-95.65,348.68-258.06,433.75-457.67l57.83-135.69c7.15-16.78,22.62-25.18,38.1-25.18M960,105.21c-34.26,0-67.63,9.57-96.51,27.66-31.39,19.67-55.73,48.24-70.38,82.63l-57.83,135.68c-71.88,168.67-202.1,306.07-366.67,386.89l-120.32,59.09c-31.78,15.61-58.06,39.82-76.01,70.03-16.64,28-25.43,60.09-25.43,92.8s8.79,64.8,25.43,92.8c17.95,30.21,44.23,54.43,76.01,70.03l120.32,59.09c164.57,80.82,294.79,218.22,366.67,386.89l57.83,135.69c14.65,34.38,38.99,62.96,70.38,82.62,28.88,18.1,62.25,27.66,96.51,27.66s67.63-9.57,96.51-27.66c31.39-19.67,55.73-48.24,70.38-82.62l57.83-135.69c71.88-168.67,202.1-306.07,366.67-386.89l120.32-59.09c31.78-15.61,58.06-39.82,76.01-70.03,16.64-28,25.43-60.09,25.43-92.8s-8.79-64.8-25.43-92.8c-17.95-30.21-44.23-54.43-76.01-70.03l-120.32-59.09c-164.57-80.82-294.79-218.22-366.67-386.89l-57.83-135.69c-14.65-34.38-38.99-62.96-70.38-82.63-28.88-18.1-62.25-27.66-96.51-27.66h0Z"/>
</svg>