<?xml version="1.0" encoding="UTF-8"?>
<svg id="Finals" xmlns="http://www.w3.org/2000/svg" viewBox="0 0 1920 1920">
  <defs>
    <style>
      .cls-1 {
        fill: #9474d2;
      }

      .cls-2 {
        fill: #583593;
      }

      .cls-3 {
        fill: #c5fbf0;
      }
    </style>
  </defs>
  <g id="Expanded">
    <g id="Outline">
      <g>
        <path class="cls-2" d="M1704.02,1003.73c-18.13-188.69-151.82-336.63-318.86-371.79,1.39-5.22,2.09-10.54,2.11-15.84.02-4.14-.37-8.26-1.13-12.3-.26-1.35-.55-2.68-.89-4.01-.17-.66-.35-1.32-.54-1.98-.38-1.32-.81-2.62-1.27-3.91-1.39-3.87-3.15-7.6-5.26-11.15-.7-1.18-1.44-2.34-2.22-3.48-8.95-13.07-22.89-23-40.69-26.34l-48.27-9.04-23.51-43.11c-.38-.69-.76-1.37-1.16-2.04-5.18-8.76-11.96-15.68-19.66-20.74-11.56-10.12-30-16.68-50.77-16.68-35.01,0-63.39,18.61-63.39,41.56,0,8.2,3.64,15.84,9.89,22.29l-10.21,18.72-48.27,9.04c-17.8,3.33-31.74,13.27-40.69,26.34-.78,1.14-1.52,2.3-2.22,3.48-.35.59-.69,1.19-1.02,1.79-.66,1.2-1.29,2.42-1.87,3.66-.88,1.86-1.66,3.76-2.36,5.69-.46,1.29-.89,2.59-1.27,3.91-.19.66-.37,1.32-.54,1.98-.68,2.65-1.19,5.35-1.53,8.08-.17,1.36-.3,2.73-.38,4.1-.16,2.71-.15,5.43.03,8.16.2,2.95.62,5.9,1.24,8.83.22,1.04.47,2.07.75,3.11.29,1.08.61,2.16.96,3.23.63,1.91,1.34,3.8,2.17,5.67.69,1.56,1.45,3.1,2.27,4.63,1.26,2.32,2.68,4.6,4.27,6.81,1.7,2.36,3.58,4.65,5.66,6.85l33.74,35.69-1.12,8.64c-10.94,8.52-21.44,17.61-31.44,27.25-2.67,2.57-1.6,7.07,1.94,8.17l.08.03c.23.07.46.16.69.27,7.41,3.51,13.51,8.9,18.99,14.87-7.81,6.91-12.44,15.46-12.44,24.72,0,22.96,28.38,41.56,63.39,41.56,15.29,0,29.32-3.55,40.27-9.47,1.26-.51,2.51-1.04,3.76-1.64l43.05-20.43c6.84,18.11,31.79,31.54,61.52,31.54,26.58,0,49.33-10.73,58.75-25.95,1.33-1.46,2.58-2.99,3.77-4.57,115.1,34.38,202.75,131.32,214.43,252.94,15.64,162.77-110.71,308.08-282.2,324.55-106.97,10.28-206.24-32.01-269.58-104.79-3.93-4.52-10.97.73-7.8,5.82,78.26,125.57,217.32,202.92,367.5,188.49,216.1-20.76,373.41-223.67,351.36-453.22Z"/>
        <g>
          <path class="cls-3" d="M1249.29,790.62c-5.65,0-11.25-1.29-16.63-3.85l-44.37-21.06c-3.39-1.61-7.06-2.42-10.72-2.42s-7.33.81-10.72,2.42l-44.37,21.06c-5.38,2.55-10.97,3.85-16.63,3.85-11.05,0-21.7-4.9-29.2-13.43-7.32-8.34-10.55-19.1-9.1-30.32l6.32-48.7c.97-7.45-1.47-14.93-6.63-20.39l-33.74-35.69c-9.87-10.44-13.12-24.84-8.68-38.51,4.44-13.67,15.53-23.41,29.66-26.06l48.27-9.04c7.38-1.38,13.75-6.01,17.35-12.6l23.51-43.11c6.88-12.62,19.57-20.15,33.95-20.15s27.06,7.53,33.95,20.15l23.51,43.11c3.6,6.59,9.96,11.22,17.35,12.6l48.27,9.04c14.13,2.65,25.21,12.39,29.66,26.06,4.44,13.67,1.2,28.07-8.68,38.51l-33.74,35.69c-5.16,5.46-7.59,12.94-6.63,20.39l6.32,48.7c1.46,11.22-1.78,21.98-9.1,30.32-7.5,8.54-18.14,13.44-29.2,13.44Z"/>
          <path class="cls-1" d="M1177.58,517.61c3.7,0,8.79,1.24,12,7.12l23.51,43.11c7.19,13.19,19.93,22.44,34.69,25.21l48.27,9.04c6.59,1.23,9.34,5.69,10.48,9.21,1.14,3.52,1.54,8.74-3.07,13.61l-33.74,35.69c-10.32,10.91-15.18,25.89-13.25,40.78l6.32,48.7c.54,4.15-.47,7.62-3.09,10.6-2.71,3.09-6.61,4.93-10.41,4.93-1.95,0-3.88-.47-5.91-1.43l-44.37-21.06c-6.78-3.22-14.11-4.83-21.44-4.83s-14.66,1.61-21.44,4.83l-44.37,21.06c-2.03.96-3.96,1.43-5.91,1.43-3.81,0-7.7-1.84-10.42-4.93-2.62-2.98-3.63-6.45-3.09-10.6l6.32-48.7c1.93-14.89-2.93-29.87-13.25-40.78l-33.74-35.69c-4.61-4.87-4.21-10.09-3.07-13.61,1.14-3.52,3.89-7.98,10.48-9.21l48.27-9.04c14.76-2.76,27.5-12.02,34.69-25.21l23.51-43.11c3.21-5.89,8.3-7.12,12-7.12M1177.58,467.61c-21.91,0-43.83,11.06-55.89,33.18l-23.51,43.11-48.27,9.04c-49.53,9.28-69.17,69.7-34.54,106.32l33.74,35.69-6.32,48.7c-5.2,40.04,26.76,71.97,63.09,71.97,9.01,0,18.3-1.97,27.35-6.26l44.37-21.06,44.37,21.06c9.05,4.3,18.33,6.26,27.35,6.26,36.32,0,68.28-31.93,63.09-71.97l-6.32-48.7,33.74-35.69c34.62-36.62,14.99-97.04-34.54-106.32l-48.27-9.04-23.51-43.11c-12.06-22.12-33.98-33.18-55.89-33.18h0Z"/>
          <path class="cls-2" d="M1177.58,497.61c12.51,0,23.56,6.56,29.56,17.55l23.51,43.11c4.31,7.91,11.96,13.46,20.82,15.12l48.27,9.04c12.3,2.3,21.95,10.78,25.82,22.69,3.87,11.9,1.04,24.44-7.55,33.53l-33.74,35.69c-6.19,6.55-9.11,15.53-7.95,24.47l6.32,48.7c1.62,12.52-3.4,21.26-7.9,26.38-6.55,7.46-15.82,11.73-25.44,11.73-4.91,0-9.78-1.13-14.49-3.36l-44.37-21.06c-4.07-1.93-8.47-2.9-12.86-2.9s-8.79.97-12.86,2.9l-44.37,21.06c-4.7,2.23-9.58,3.36-14.49,3.36-9.62,0-18.89-4.28-25.44-11.73-4.5-5.12-9.52-13.85-7.9-26.38l6.32-48.7c1.16-8.94-1.76-17.92-7.95-24.47l-33.74-35.69c-8.6-9.09-11.42-21.63-7.55-33.53,3.87-11.9,13.52-20.38,25.82-22.69l48.27-9.04c8.86-1.66,16.5-7.21,20.82-15.12l23.51-43.11c5.99-10.99,17.04-17.55,29.56-17.55M1177.58,467.61c-21.91,0-43.83,11.06-55.89,33.18l-23.51,43.11-48.27,9.04c-49.53,9.28-69.17,69.7-34.54,106.32l33.74,35.69-6.32,48.7c-5.2,40.04,26.76,71.97,63.09,71.97,9.01,0,18.3-1.97,27.35-6.26l44.37-21.06,44.37,21.06c9.05,4.3,18.33,6.26,27.35,6.26,36.32,0,68.28-31.93,63.09-71.97l-6.32-48.7,33.74-35.69c34.62-36.62,14.99-97.04-34.54-106.32l-48.27-9.04-23.51-43.11c-12.06-22.12-33.98-33.18-55.89-33.18h0Z"/>
        </g>
      </g>
      <path class="cls-2" d="M1369.6,1056.93c12.64-12.64,19.32-28.79,19.32-46.7v-50.85c0-17.9-6.68-34.04-19.31-46.69-12.68-12.66-28.68-19.34-46.32-19.34h-51.25c-17.91,0-34.06,6.68-46.7,19.32-.26.26-.51.52-.76.78-11.88,12.55-18.16,28.29-18.16,45.52v62.5h-73.75v-62.1c0-17.9-6.68-34.04-19.31-46.69-12.68-12.66-28.68-19.34-46.32-19.34h-51.25c-17.91,0-34.06,6.68-46.7,19.32-.26.26-.51.52-.76.78-3.19,3.37-5.97,6.98-8.34,10.78v-11.71c18.43-6.31,31.35-23.56,31.35-44.4v-8.86c0-18.21-9.86-33.69-24.65-41.52,0-.07,0-.14,0-.21v-6.33c14.79-7.83,24.65-23.31,24.65-41.52v-8.86c0-26.35-20.64-46.98-46.98-46.98h-89.74c-16.93,0-31.49,8.53-39.74,21.61-8.25-13.08-22.81-21.61-39.74-21.61h-9.51c-16.85,0-31.36,8.44-39.64,21.41-8.27-12.97-22.79-21.41-39.64-21.41h-9.34c-15.13,0-28.37,6.81-36.9,17.6-8.54-10.78-21.77-17.6-36.9-17.6h-93.61c-14.88,0-27.94,6.59-36.49,17.07-8.55-10.48-21.61-17.07-36.49-17.07h-9.35c-16.9,0-31.46,8.5-39.72,21.55l-2.75-3.33c-9.27-11.59-23.12-18.22-38.09-18.22h-10.15c-14.98,0-28.11,6.68-36.66,17.28-8.54-10.6-21.67-17.28-36.66-17.28h-9.35c-26.35,0-46.98,20.64-46.98,46.98v107.31c0,16.37,7.97,30.54,20.33,38.92-2.22,1.73-4.37,3.6-6.41,5.64-.26.26-.51.52-.76.78-11.88,12.55-18.16,28.43-18.16,45.92v50.85c0,14.26,4.17,27.45,12.15,38.63-7.98,11.14-12.15,24.2-12.15,38.24v76.88c0,17.51,6.29,33.4,18.18,45.94.49.51.99,1.02,1.5,1.5,12.54,11.89,28.43,18.18,45.94,18.18h51.25c17.23,0,32.97-6.28,45.52-18.16.26-.25.52-.5.78-.76,1.71-1.71,3.31-3.48,4.8-5.31,1.24,1.56,2.56,3.08,3.96,4.55.49.51.99,1.02,1.5,1.5,12.54,11.89,28.43,18.18,45.94,18.18h51.25c17.23,0,32.97-6.28,45.52-18.16.26-.25.52-.5.78-.76,1.71-1.71,3.31-3.48,4.8-5.31,1.24,1.56,2.56,3.08,3.96,4.55.49.51.99,1.02,1.5,1.5,12.54,11.89,28.43,18.18,45.94,18.18h51.25c17.23,0,32.97-6.28,45.52-18.16.26-.25.52-.5.78-.76,5.23-5.23,9.43-11.08,12.57-17.39,2.92,6.01,6.78,11.59,11.56,16.63.49.51.99,1.02,1.5,1.5,12.54,11.89,28.43,18.18,45.94,18.18h153.75c17.23,0,32.98-6.28,45.52-18.16.26-.25.52-.5.78-.76,5.24-5.24,9.43-11.08,12.57-17.39,2.92,6.01,6.78,11.59,11.56,16.63.49.51.99,1.02,1.5,1.5,12.54,11.89,28.43,18.18,45.94,18.18h51.25c17.23,0,32.97-6.28,45.52-18.16.26-.25.52-.5.78-.76,12.64-12.64,19.32-28.79,19.32-46.7v-11.25h125v11.25c0,17.51,6.29,33.4,18.18,45.94.49.51.99,1.02,1.5,1.5,12.54,11.89,28.43,18.18,45.94,18.18s32.97-6.28,45.52-18.16c.26-.25.52-.5.78-.76,12.64-12.64,19.32-28.79,19.32-46.7v-51.25c0-17.64-6.68-33.64-19.31-46.29-1.72-1.71-3.49-3.32-5.33-4.81,1.55-1.24,3.07-2.55,4.53-3.94.26-.25.52-.5.78-.76ZM499.63,815.62h-16.03v-6.61c4.78,3.13,10.19,5.39,16.03,6.61ZM613.16,815.62c6.19-1.29,11.9-3.74,16.88-7.15v7.15h-16.88ZM969.09,1066.42c-.26.26-.51.52-.76.78-3.19,3.37-5.97,6.99-8.34,10.81v-32.66c2.37,3.82,5.15,7.45,8.35,10.82.49.51.99,1.02,1.5,1.5,1.47,1.4,2.99,2.72,4.55,3.96-1.83,1.49-3.61,3.09-5.32,4.8Z"/>
      <g>
        <g>
          <g>
            <path class="cls-3" d="M547.05,1209.6c-12.29,0-23.42-4.39-32.18-12.69-.26-.24-.51-.49-.75-.75-8.3-8.76-12.69-19.89-12.69-32.18v-76.88c0-11.78,4.22-22.57,12.2-31.25h-17.83c-1.82,0-2.85.38-4.08,1.56-1.15,1.27-1.54,2.33-1.54,4.06v102.5c0,12.49-4.66,23.75-13.47,32.56-.13.13-.26.26-.39.38-8.76,8.3-19.75,12.69-31.77,12.69h-51.25c-12.29,0-23.42-4.39-32.18-12.69-.26-.24-.51-.49-.75-.75-8.3-8.76-12.69-19.89-12.69-32.18v-76.88c0-11.78,4.22-22.57,12.2-31.25h-17.83c-1.82,0-2.85.38-4.08,1.56-1.15,1.27-1.54,2.33-1.54,4.06v102.5c0,12.49-4.66,23.75-13.47,32.56-.13.13-.26.26-.39.38-8.76,8.3-19.75,12.69-31.77,12.69h-51.25c-12.29,0-23.42-4.39-32.18-12.69-.26-.24-.51-.49-.75-.75-8.3-8.76-12.69-19.89-12.69-32.18v-76.88c0-12.02,4.39-23.01,12.69-31.77.12-.13.25-.26.38-.39,2.36-2.36,4.89-4.42,7.57-6.17-2.54-1.61-4.95-3.48-7.19-5.61-.26-.24-.51-.49-.75-.75-8.3-8.76-12.69-19.89-12.69-32.18v-50.85c0-12.28,4.39-23.41,12.69-32.17.12-.13.25-.26.38-.39,8.81-8.81,20.07-13.47,32.56-13.47h333.12c19.63,0,36.55,7.12,50.27,21.17,13.92,13.97,20.98,30.82,20.98,50.08v179.38c0,12.49-4.66,23.75-13.47,32.56-.13.13-.26.26-.39.38-8.76,8.3-19.75,12.69-31.77,12.69h-51.25Z"/>
            <path class="cls-2" d="M572.67,933.35c14.15,0,26.16,5.07,36.04,15.21,10.14,10.15,15.21,22.16,15.21,36.04v179.38c0,7.21-2.54,13.35-7.61,18.42-5.07,4.8-11.08,7.21-18.02,7.21h-51.25c-7.21,0-13.35-2.4-18.42-7.21-4.8-5.07-7.21-11.21-7.21-18.42v-76.88c0-6.94,2.4-12.94,7.21-18.02,5.07-5.07,11.21-7.61,18.42-7.61h12.81c3.47,0,6.41-1.2,8.81-3.6,2.66-2.4,4-5.47,4-9.21,0-3.47-1.34-6.41-4-8.81-2.4-2.67-5.34-4-8.81-4h-64.06c-7.21,0-13.35,2.54-18.42,7.61-4.8,5.07-7.21,11.08-7.21,18.02v102.5c0,7.21-2.54,13.35-7.61,18.42-5.07,4.8-11.08,7.21-18.02,7.21h-51.25c-7.21,0-13.35-2.4-18.42-7.21-4.8-5.07-7.21-11.21-7.21-18.42v-76.88c0-6.94,2.4-12.94,7.21-18.02,5.07-5.07,11.21-7.61,18.42-7.61h12.81c3.47,0,6.41-1.2,8.81-3.6,2.67-2.4,4-5.47,4-9.21,0-3.47-1.34-6.41-4-8.81-2.4-2.67-5.34-4-8.81-4h-64.06c-7.21,0-13.35,2.54-18.42,7.61-4.8,5.07-7.21,11.08-7.21,18.02v102.5c0,7.21-2.54,13.35-7.61,18.42-5.07,4.8-11.08,7.21-18.02,7.21h-51.25c-7.21,0-13.35-2.4-18.42-7.21-4.8-5.07-7.21-11.21-7.21-18.42v-76.88c0-6.94,2.4-12.94,7.21-18.02,5.07-5.07,11.21-7.61,18.42-7.61h12.81c3.47,0,6.41-1.2,8.81-3.6,2.67-2.4,4-5.47,4-9.21,0-3.47-1.34-6.41-4-8.81-2.4-2.67-5.34-4-8.81-4h-12.81c-7.21,0-13.35-2.4-18.42-7.21-4.8-5.07-7.21-11.21-7.21-18.42v-50.85c0-7.21,2.4-13.34,7.21-18.42,5.07-5.07,11.21-7.61,18.42-7.61h333.12M572.67,893.35H239.55c-17.91,0-34.06,6.68-46.7,19.32-.26.26-.51.52-.76.78-11.88,12.55-18.16,28.43-18.16,45.92v50.85c0,14.26,4.17,27.45,12.15,38.63-7.98,11.14-12.15,24.2-12.15,38.24v76.88c0,17.51,6.29,33.4,18.18,45.94.49.51.99,1.02,1.5,1.5,12.54,11.89,28.43,18.18,45.94,18.18h51.25c17.23,0,32.97-6.28,45.52-18.16.26-.25.52-.5.78-.76,1.71-1.71,3.31-3.48,4.8-5.31,1.24,1.56,2.56,3.08,3.96,4.55.49.51.99,1.02,1.5,1.5,12.54,11.89,28.43,18.18,45.94,18.18h51.25c17.23,0,32.97-6.28,45.52-18.16.26-.25.52-.5.78-.76,1.71-1.71,3.31-3.48,4.8-5.31,1.24,1.56,2.56,3.08,3.96,4.55.49.51.99,1.02,1.5,1.5,12.54,11.89,28.43,18.18,45.94,18.18h51.25c17.23,0,32.97-6.28,45.52-18.16.26-.25.52-.5.78-.76,12.64-12.64,19.32-28.79,19.32-46.7v-179.38c0-24.37-9.25-46.54-26.74-64.13-17.37-17.74-39.67-27.12-64.51-27.12h0Z"/>
            <path class="cls-1" d="M572.67,933.35c14.15,0,26.16,5.07,36.04,15.21,10.14,10.15,15.21,22.16,15.21,36.04v179.37c0,7.21-2.54,13.35-7.61,18.42-5.07,4.8-11.08,7.21-18.02,7.21h-51.25c-7.21,0-13.35-2.4-18.42-7.21-4.8-5.07-7.21-11.21-7.21-18.42v-76.87c0-6.94,2.4-12.94,7.21-18.02,5.07-5.07,11.21-7.61,18.42-7.61h12.81c3.47,0,6.41-1.2,8.81-3.6,2.66-2.4,4-5.47,4-9.21,0-3.47-1.34-6.41-4-8.81-2.4-2.67-5.34-4-8.81-4h-64.06c-7.21,0-13.35,2.54-18.42,7.61-4.8,5.07-7.21,11.08-7.21,18.02v102.5c0,7.21-2.54,13.35-7.61,18.42-5.07,4.8-11.08,7.21-18.02,7.21h-51.25c-7.21,0-13.35-2.4-18.42-7.21-4.8-5.07-7.21-11.21-7.21-18.42v-76.87c0-6.94,2.4-12.94,7.21-18.02,5.07-5.07,11.21-7.61,18.42-7.61h12.81c3.47,0,6.41-1.2,8.81-3.6,2.67-2.4,4-5.47,4-9.21,0-3.47-1.34-6.41-4-8.81-2.4-2.67-5.34-4-8.81-4h-64.06c-7.21,0-13.35,2.54-18.42,7.61-4.8,5.07-7.21,11.08-7.21,18.02v102.5c0,7.21-2.54,13.35-7.61,18.42-5.07,4.8-11.08,7.21-18.02,7.21h-51.25c-7.21,0-13.35-2.4-18.42-7.21-4.8-5.07-7.21-11.21-7.21-18.42v-76.87c0-6.94,2.4-12.94,7.21-18.02,5.07-5.07,11.21-7.61,18.42-7.61h12.81c3.47,0,6.41-1.2,8.81-3.6,2.67-2.4,4-5.47,4-9.21,0-3.47-1.34-6.41-4-8.81-2.4-2.67-5.34-4-8.81-4h-12.81c-7.21,0-13.35-2.4-18.42-7.21-4.8-5.07-7.21-11.21-7.21-18.42v-50.85c0-7.21,2.4-13.34,7.21-18.42,5.07-5.07,11.21-7.61,18.42-7.61h333.12M572.67,917.35H239.55c-11.41,0-21.69,4.25-29.73,12.29-.1.1-.2.21-.3.31-7.58,8.01-11.59,18.18-11.59,29.42v50.85c0,11.25,4.01,21.43,11.6,29.43.2.21.4.41.6.6,3.88,3.68,8.27,6.51,13.04,8.46-4.9,2.07-9.39,5.1-13.34,9.05-.1.1-.2.21-.3.31-7.58,8.01-11.59,18.04-11.59,29.02v76.87c0,11.25,4.01,21.43,11.6,29.43.2.21.4.41.6.6,8,7.59,18.18,11.6,29.43,11.6h51.25c10.98,0,21.01-4.01,29.02-11.59.11-.1.21-.2.31-.3,8.04-8.04,12.29-18.32,12.29-29.73v-102.5c0-2.76.8-4.82,2.68-6.86,2.02-1.96,4.05-2.77,6.95-2.77h28.88c-2.62,1.66-5.08,3.64-7.36,5.92-.1.1-.2.21-.3.31-7.58,8.01-11.59,18.04-11.59,29.02v76.87c0,11.25,4.01,21.43,11.6,29.43.2.21.4.41.6.6,8,7.59,18.18,11.6,29.43,11.6h51.25c10.98,0,21.01-4.01,29.02-11.59.11-.1.21-.2.31-.3,8.04-8.04,12.29-18.32,12.29-29.73v-102.5c0-2.76.8-4.82,2.68-6.86,2.02-1.96,4.05-2.77,6.95-2.77h28.88c-2.62,1.66-5.08,3.64-7.36,5.92-.1.1-.2.21-.3.31-7.58,8.01-11.59,18.04-11.59,29.02v76.87c0,11.25,4.01,21.43,11.6,29.43.2.21.4.41.6.6,8,7.59,18.18,11.6,29.43,11.6h51.25c10.98,0,21.01-4.01,29.02-11.59.11-.1.21-.2.31-.3,8.04-8.04,12.29-18.32,12.29-29.73v-179.37c0-18.17-6.67-34.08-19.83-47.28-12.95-13.25-28.9-19.97-47.42-19.97h0Z"/>
          </g>
          <g>
            <path class="cls-3" d="M716.17,1209.6c-12.29,0-23.42-4.39-32.18-12.69-.26-.24-.51-.5-.75-.75-8.3-8.76-12.69-19.89-12.69-32.18s4.39-23.01,12.69-31.77c.12-.13.25-.26.38-.39,8.81-8.81,20.07-13.47,32.56-13.47,1.73,0,2.79-.39,4.06-1.54,1.18-1.23,1.56-2.26,1.56-4.08v-76.88c0-11.78,4.22-22.57,12.2-31.25h-17.83c-12.29,0-23.42-4.39-32.18-12.69-.26-.24-.51-.5-.75-.75-8.3-8.76-12.69-19.89-12.69-32.18s4.39-23.01,12.69-31.77c.12-.13.25-.26.38-.39,8.81-8.81,20.07-13.47,32.56-13.47h153.75c12.22,0,23.34,4.65,32.15,13.46,8.82,8.83,13.47,19.95,13.47,32.17s-4.66,23.75-13.47,32.56c-.13.13-.26.25-.39.38-8.76,8.3-19.75,12.69-31.77,12.69-1.82,0-2.85.38-4.08,1.56-1.15,1.27-1.54,2.33-1.54,4.06v102.5c0,2.1.49,3.23,1.36,4.26,1.03.87,2.16,1.36,4.26,1.36,12.22,0,23.34,4.65,32.15,13.46,8.82,8.83,13.47,19.95,13.47,32.17s-4.66,23.75-13.47,32.56c-.13.13-.26.25-.39.38-8.76,8.3-19.75,12.69-31.77,12.69h-153.75Z"/>
            <path class="cls-2" d="M869.92,933.35c6.94,0,12.94,2.54,18.02,7.61,5.07,5.07,7.61,11.08,7.61,18.02s-2.54,13.35-7.61,18.42c-5.07,4.8-11.08,7.21-18.02,7.21s-13.35,2.54-18.42,7.61c-4.8,5.07-7.21,11.08-7.21,18.02v102.5c0,7.21,2.4,13.35,7.21,18.42,5.07,4.8,11.21,7.21,18.42,7.21s12.94,2.54,18.02,7.61c5.07,5.07,7.61,11.08,7.61,18.02s-2.54,13.35-7.61,18.42c-5.07,4.8-11.08,7.21-18.02,7.21h-153.75c-7.21,0-13.35-2.4-18.42-7.21-4.8-5.07-7.21-11.21-7.21-18.42s2.4-12.94,7.21-18.02c5.07-5.07,11.21-7.61,18.42-7.61s12.94-2.4,18.02-7.21c5.07-5.07,7.61-11.21,7.61-18.42v-76.88c0-6.94,2.4-12.94,7.21-18.02,5.07-5.07,11.21-7.61,18.42-7.61h12.81c3.47,0,6.41-1.2,8.81-3.6,2.66-2.4,4-5.47,4-9.21,0-3.47-1.34-6.41-4-8.81-2.4-2.67-5.34-4-8.81-4h-64.06c-7.21,0-13.35-2.4-18.42-7.21-4.8-5.07-7.21-11.21-7.21-18.42s2.4-12.94,7.21-18.02c5.07-5.07,11.21-7.61,18.42-7.61h153.75M869.92,893.35h-153.75c-17.91,0-34.06,6.68-46.7,19.32-.26.26-.51.52-.76.78-11.88,12.55-18.16,28.29-18.16,45.52s6.29,33.4,18.18,45.94c.49.52.99,1.02,1.5,1.51,9.3,8.82,20.44,14.55,32.71,16.93-.76,4.06-1.14,8.23-1.14,12.5v64.01c-12.17,2.63-23.17,8.66-32.33,17.82-.26.26-.51.52-.76.78-11.88,12.55-18.16,28.29-18.16,45.52s6.29,33.4,18.18,45.94c.49.51.99,1.02,1.5,1.5,12.54,11.89,28.43,18.18,45.94,18.18h153.75c17.23,0,32.98-6.28,45.52-18.16.26-.25.52-.5.78-.76,12.64-12.64,19.32-28.79,19.32-46.7s-6.68-33.64-19.31-46.29c-9.13-9.12-19.99-15.14-31.94-17.79v-76.83c11.6-2.53,22.19-8.15,31.15-16.64.26-.25.52-.5.78-.76,12.64-12.64,19.32-28.79,19.32-46.7s-6.68-33.64-19.31-46.29c-12.68-12.66-28.68-19.34-46.32-19.34h0Z"/>
            <path class="cls-1" d="M869.92,933.35c6.94,0,12.94,2.54,18.02,7.61,5.07,5.07,7.61,11.08,7.61,18.02s-2.54,13.35-7.61,18.42c-5.07,4.8-11.08,7.21-18.02,7.21s-13.35,2.54-18.42,7.61c-4.8,5.07-7.21,11.08-7.21,18.02v102.5c0,7.21,2.4,13.35,7.21,18.42,5.07,4.8,11.21,7.21,18.42,7.21s12.94,2.54,18.02,7.61c5.07,5.07,7.61,11.08,7.61,18.02s-2.54,13.35-7.61,18.42c-5.07,4.8-11.08,7.21-18.02,7.21h-153.75c-7.21,0-13.35-2.4-18.42-7.21-4.8-5.07-7.21-11.21-7.21-18.42s2.4-12.94,7.21-18.02c5.07-5.07,11.21-7.61,18.42-7.61s12.94-2.4,18.02-7.21c5.07-5.07,7.61-11.21,7.61-18.42v-76.87c0-6.94,2.4-12.94,7.21-18.02,5.07-5.07,11.21-7.61,18.42-7.61h12.81c3.47,0,6.41-1.2,8.81-3.6,2.67-2.4,4-5.47,4-9.21,0-3.47-1.34-6.41-4-8.81-2.4-2.67-5.34-4-8.81-4h-64.06c-7.21,0-13.35-2.4-18.42-7.21-4.8-5.07-7.21-11.21-7.21-18.42s2.4-12.94,7.21-18.02c5.07-5.07,11.21-7.61,18.42-7.61h153.75M869.92,917.35h-153.75c-11.41,0-21.69,4.25-29.73,12.29-.1.1-.2.21-.3.31-7.58,8.01-11.59,18.04-11.59,29.02s4.01,21.43,11.6,29.43c.2.21.4.41.6.6,8,7.59,18.18,11.6,29.43,11.6h28.88c-2.62,1.66-5.08,3.64-7.36,5.92-.1.1-.2.21-.3.31-7.58,8.01-11.59,18.04-11.59,29.02v76.87c0,2.9-.8,4.93-2.77,6.95-2.04,1.87-4.1,2.68-6.86,2.68-11.41,0-21.69,4.25-29.73,12.29-.1.1-.2.21-.3.31-7.58,8.01-11.59,18.04-11.59,29.02s4.01,21.43,11.6,29.43c.2.21.4.41.6.6,8,7.59,18.18,11.6,29.43,11.6h153.75c10.98,0,21.01-4.01,29.02-11.59.11-.1.21-.2.31-.3,8.04-8.04,12.29-18.32,12.29-29.73s-4.25-21.28-12.29-29.32c-8.06-8.05-18.2-12.3-29.34-12.3-2.95,0-5.1-.76-7.1-2.53-1.77-1.99-2.53-4.14-2.53-7.1v-102.5c0-2.76.8-4.82,2.68-6.86,2.02-1.96,4.05-2.77,6.95-2.77,10.98,0,21.01-4.01,29.02-11.59.11-.1.21-.2.31-.3,8.04-8.04,12.29-18.32,12.29-29.73s-4.25-21.28-12.29-29.32c-8.06-8.05-18.2-12.3-29.34-12.3h0Z"/>
          </g>
          <g>
            <path class="cls-3" d="M1295.3,1209.6c-12.29,0-23.42-4.39-32.18-12.69-.26-.24-.51-.49-.75-.75-8.3-8.76-12.69-19.89-12.69-32.18v-25.62c0-1.41-.27-2.4-1.76-3.88-1.47-1.47-2.46-1.74-3.87-1.74h-153.75c-1.82,0-2.85.38-4.08,1.56-1.15,1.27-1.54,2.33-1.54,4.06v25.62c0,12.49-4.66,23.75-13.46,32.56-.13.13-.26.25-.39.38-8.76,8.3-19.75,12.69-31.77,12.69h-51.25c-12.29,0-23.42-4.39-32.18-12.69-.26-.24-.51-.49-.75-.75-8.3-8.76-12.69-19.89-12.69-32.18v-50.85c0-12.28,4.39-23.41,12.69-32.17.12-.13.25-.26.38-.39,8.81-8.81,20.07-13.47,32.56-13.47,1.73,0,2.79-.39,4.06-1.54,1.18-1.23,1.56-2.26,1.56-4.08,0-1.41-.27-2.4-1.76-3.88-1.47-1.47-2.46-1.74-3.87-1.74-12.29,0-23.42-4.39-32.18-12.69-.26-.24-.51-.49-.75-.75-8.3-8.76-12.69-19.89-12.69-32.18v-51.25c0-12.02,4.39-23.01,12.69-31.77.12-.13.25-.26.38-.39,8.81-8.81,20.07-13.47,32.56-13.47h51.25c12.22,0,23.34,4.65,32.15,13.46,8.82,8.83,13.47,20.09,13.47,32.57v76.47c0,2.1.49,3.23,1.36,4.26,1.03.87,2.16,1.36,4.26,1.36h102.5c1.73,0,2.79-.39,4.06-1.54,1.18-1.23,1.56-2.26,1.56-4.08v-76.88c0-12.02,4.39-23.01,12.69-31.77.12-.13.25-.26.38-.39,8.81-8.81,20.07-13.47,32.56-13.47h51.25c12.22,0,23.34,4.65,32.15,13.46,8.82,8.83,13.47,20.09,13.47,32.57v50.85c0,12.49-4.66,23.75-13.46,32.56-.13.13-.26.25-.39.38-8.76,8.3-19.75,12.69-31.77,12.69-1.82,0-2.85.38-4.08,1.56-1.15,1.27-1.54,2.33-1.54,4.06,0,2.1.49,3.23,1.36,4.26,1.03.87,2.16,1.36,4.26,1.36,12.22,0,23.34,4.65,32.15,13.46,8.82,8.83,13.47,19.95,13.47,32.17v51.25c0,12.49-4.66,23.75-13.46,32.56-.13.13-.26.25-.39.38-8.76,8.3-19.75,12.69-31.77,12.69Z"/>
            <path class="cls-2" d="M1295.3,933.35c6.94,0,12.94,2.54,18.02,7.61,5.07,5.07,7.61,11.21,7.61,18.42v50.85c0,7.21-2.54,13.35-7.61,18.42-5.07,4.8-11.08,7.21-18.02,7.21s-13.35,2.54-18.42,7.61c-4.8,5.07-7.21,11.08-7.21,18.02s2.4,13.35,7.21,18.42c5.07,4.8,11.21,7.21,18.42,7.21s12.94,2.54,18.02,7.61c5.07,5.07,7.61,11.08,7.61,18.02v51.25c0,7.21-2.54,13.35-7.61,18.42-5.07,4.8-11.08,7.21-18.02,7.21s-13.35-2.4-18.42-7.21c-4.8-5.07-7.21-11.21-7.21-18.42v-25.62c0-6.94-2.54-12.94-7.61-18.02-5.07-5.07-11.08-7.61-18.02-7.61h-153.75c-7.21,0-13.35,2.54-18.42,7.61-4.8,5.07-7.21,11.08-7.21,18.02v25.62c0,7.21-2.54,13.35-7.61,18.42-5.07,4.8-11.08,7.21-18.02,7.21h-51.25c-7.21,0-13.35-2.4-18.42-7.21-4.8-5.07-7.21-11.21-7.21-18.42v-50.85c0-7.21,2.4-13.34,7.21-18.42,5.07-5.07,11.21-7.61,18.42-7.61s12.94-2.4,18.02-7.21c5.07-5.07,7.61-11.21,7.61-18.42s-2.54-12.94-7.61-18.02c-5.07-5.07-11.08-7.61-18.02-7.61s-13.35-2.4-18.42-7.21c-4.8-5.07-7.21-11.21-7.21-18.42v-51.25c0-6.94,2.4-12.94,7.21-18.02,5.07-5.07,11.21-7.61,18.42-7.61h51.25c6.94,0,12.94,2.54,18.02,7.61,5.07,5.07,7.61,11.21,7.61,18.42v76.47c0,7.21,2.4,13.35,7.21,18.42,5.07,4.8,11.21,7.21,18.42,7.21h102.5c6.94,0,12.94-2.4,18.02-7.21,5.07-5.07,7.61-11.21,7.61-18.42v-76.88c0-6.94,2.4-12.94,7.21-18.02,5.07-5.07,11.21-7.61,18.42-7.61h51.25M1295.3,893.35h-51.25c-17.91,0-34.06,6.68-46.7,19.32-.26.26-.51.52-.76.78-11.88,12.55-18.16,28.29-18.16,45.52v62.5h-73.75v-62.1c0-17.9-6.68-34.04-19.31-46.69-12.68-12.66-28.68-19.34-46.32-19.34h-51.25c-17.91,0-34.06,6.68-46.7,19.32-.26.26-.51.52-.76.78-11.88,12.55-18.16,28.29-18.16,45.52v51.25c0,17.51,6.29,33.4,18.18,45.94.49.51.99,1.02,1.5,1.5,1.47,1.4,2.99,2.72,4.55,3.96-1.83,1.49-3.61,3.09-5.32,4.8-.26.26-.51.52-.76.78-11.88,12.55-18.16,28.43-18.16,45.92v50.85c0,17.51,6.29,33.4,18.18,45.94.49.51.99,1.02,1.5,1.5,12.54,11.89,28.43,18.18,45.94,18.18h51.25c17.23,0,32.97-6.28,45.52-18.16.26-.25.52-.5.78-.76,12.64-12.64,19.32-28.79,19.32-46.7v-11.25h125v11.25c0,17.51,6.29,33.4,18.18,45.94.49.51.99,1.02,1.5,1.5,12.54,11.89,28.43,18.18,45.94,18.18s32.97-6.28,45.52-18.16c.26-.25.52-.5.78-.76,12.64-12.64,19.32-28.79,19.32-46.7v-51.25c0-17.64-6.68-33.64-19.31-46.29-1.72-1.71-3.49-3.32-5.33-4.81,1.55-1.24,3.07-2.55,4.53-3.94.26-.25.52-.5.78-.76,12.64-12.64,19.32-28.79,19.32-46.7v-50.85c0-17.9-6.68-34.04-19.31-46.69-12.68-12.66-28.68-19.34-46.32-19.34h0Z"/>
            <path class="cls-1" d="M1295.3,933.35c6.94,0,12.94,2.54,18.02,7.61,5.07,5.07,7.61,11.21,7.61,18.42v50.85c0,7.21-2.54,13.35-7.61,18.42-5.07,4.8-11.08,7.21-18.02,7.21s-13.35,2.54-18.42,7.61c-4.8,5.07-7.21,11.08-7.21,18.02s2.4,13.35,7.21,18.42c5.07,4.8,11.21,7.21,18.42,7.21s12.94,2.54,18.02,7.61c5.07,5.07,7.61,11.08,7.61,18.02v51.25c0,7.21-2.54,13.35-7.61,18.42-5.07,4.8-11.08,7.21-18.02,7.21s-13.35-2.4-18.42-7.21c-4.8-5.07-7.21-11.21-7.21-18.42v-25.62c0-6.94-2.54-12.94-7.61-18.02-5.07-5.07-11.08-7.61-18.02-7.61h-153.75c-7.21,0-13.35,2.54-18.42,7.61-4.8,5.07-7.21,11.08-7.21,18.02v25.62c0,7.21-2.54,13.35-7.61,18.42-5.07,4.8-11.08,7.21-18.02,7.21h-51.25c-7.21,0-13.35-2.4-18.42-7.21-4.8-5.07-7.21-11.21-7.21-18.42v-50.85c0-7.21,2.4-13.34,7.21-18.42,5.07-5.07,11.21-7.61,18.42-7.61s12.94-2.4,18.02-7.21c5.07-5.07,7.61-11.21,7.61-18.42s-2.54-12.94-7.61-18.02c-5.07-5.07-11.08-7.61-18.02-7.61s-13.35-2.4-18.42-7.21c-4.8-5.07-7.21-11.21-7.21-18.42v-51.25c0-6.94,2.4-12.94,7.21-18.02,5.07-5.07,11.21-7.61,18.42-7.61h51.25c6.94,0,12.94,2.54,18.02,7.61,5.07,5.07,7.61,11.21,7.61,18.42v76.47c0,7.21,2.4,13.35,7.21,18.42,5.07,4.8,11.21,7.21,18.42,7.21h102.5c6.94,0,12.94-2.4,18.02-7.21,5.07-5.07,7.61-11.21,7.61-18.42v-76.88c0-6.94,2.4-12.94,7.21-18.02,5.07-5.07,11.21-7.61,18.42-7.61h51.25M1295.3,917.35h-51.25c-11.41,0-21.69,4.25-29.73,12.29-.1.1-.2.21-.3.31-7.58,8.01-11.59,18.04-11.59,29.02v76.88c0,2.9-.81,4.93-2.77,6.95-2.04,1.87-4.1,2.67-6.86,2.67h-102.5c-2.95,0-5.1-.76-7.1-2.53-1.77-1.99-2.53-4.14-2.53-7.1v-76.47c0-11.4-4.25-21.68-12.29-29.73-8.06-8.05-18.2-12.3-29.34-12.3h-51.25c-11.41,0-21.69,4.25-29.73,12.29-.1.1-.2.21-.3.31-7.58,8.01-11.59,18.04-11.59,29.02v51.25c0,11.25,4.01,21.43,11.6,29.43.2.21.4.41.6.6,8,7.59,18.18,11.6,29.43,11.6,2.68,0,4.63.85,6.71,2.93,2.07,2.07,2.91,4.01,2.91,6.7,0,2.9-.81,4.93-2.77,6.95-2.04,1.87-4.1,2.67-6.86,2.67-11.41,0-21.69,4.25-29.73,12.29-.1.1-.2.21-.3.31-7.58,8.01-11.59,18.18-11.59,29.42v50.85c0,11.25,4.01,21.43,11.6,29.43.2.21.4.41.6.6,8,7.59,18.18,11.6,29.43,11.6h51.25c10.98,0,21.01-4.01,29.02-11.59.11-.1.21-.2.31-.3,8.04-8.04,12.29-18.32,12.29-29.73v-25.62c0-2.76.8-4.82,2.68-6.86,2.02-1.96,4.05-2.77,6.95-2.77h153.75c2.68,0,4.63.85,6.71,2.93,2.07,2.07,2.91,4.01,2.91,6.7v25.62c0,11.25,4.01,21.43,11.6,29.43.2.21.4.41.6.6,8,7.59,18.18,11.6,29.43,11.6s21.01-4.01,29.02-11.59c.11-.1.21-.2.31-.3,8.04-8.04,12.29-18.32,12.29-29.73v-51.25c0-11.14-4.25-21.28-12.29-29.32-8.06-8.05-18.2-12.3-29.34-12.3-2.95,0-5.1-.76-7.1-2.53-1.77-1.99-2.53-4.14-2.53-7.1,0-2.76.8-4.82,2.67-6.86,2.02-1.96,4.05-2.77,6.95-2.77,10.98,0,21.01-4.01,29.02-11.59.11-.1.21-.2.31-.3,8.04-8.04,12.29-18.32,12.29-29.73v-50.85c0-11.4-4.25-21.68-12.29-29.73-8.06-8.05-18.2-12.3-29.34-12.3h0Z"/>
          </g>
        </g>
        <g>
          <g>
            <path class="cls-3" d="M225.9,731.33h9.34c16.27,0,29.48,13.21,29.48,29.48v107.31c0,16.27-13.21,29.48-29.48,29.48h-9.34c-16.27,0-29.48-13.21-29.48-29.48v-107.31c0-16.27,13.21-29.48,29.48-29.48Z"/>
            <path class="cls-2" d="M235.25,748.83c6.94,0,11.98,5.04,11.98,11.98v107.31c0,6.94-5.04,11.98-11.98,11.98h-9.35c-6.94,0-11.98-5.04-11.98-11.98v-107.31c0-6.94,5.04-11.98,11.98-11.98h9.35M235.25,713.83h-9.35c-26.35,0-46.98,20.64-46.98,46.98v107.31c0,26.35,20.64,46.98,46.98,46.98h9.35c26.35,0,46.98-20.64,46.98-46.98v-107.31c0-26.35-20.64-46.98-46.98-46.98h0Z"/>
            <path class="cls-1" d="M235.25,748.83c6.94,0,11.98,5.04,11.98,11.98v107.31c0,6.94-5.04,11.98-11.98,11.98h-9.35c-6.94,0-11.98-5.04-11.98-11.98v-107.31c0-6.94,5.04-11.98,11.98-11.98h9.35M235.25,734.83h-9.35c-7.1,0-13.67,2.66-18.49,7.49-4.83,4.83-7.49,11.4-7.49,18.49v107.31c0,7.1,2.66,13.67,7.49,18.49,4.83,4.83,11.4,7.49,18.49,7.49h9.35c7.1,0,13.67-2.66,18.49-7.49,4.83-4.83,7.49-11.4,7.49-18.49v-107.31c0-7.1-2.66-13.67-7.49-18.49-4.83-4.83-11.4-7.49-18.49-7.49h0Z"/>
          </g>
          <g>
            <path class="cls-3" d="M398.14,897.6c-9.65,0-18.56-4.27-24.49-11.73l-26.26-31.77v14.02c0,16.53-12.95,29.48-29.48,29.48h-9.34c-16.53,0-29.48-12.95-29.48-29.48v-107.31c0-16.53,12.95-29.48,29.48-29.48h10.15c9.65,0,18.57,4.28,24.5,11.74l26.58,32.18v-14.44c0-16.53,12.95-29.48,29.48-29.48h9.35c16.53,0,29.48,12.95,29.48,29.48v107.31c0,16.53-12.95,29.48-29.48,29.48h-10.47Z"/>
            <path class="cls-2" d="M408.62,748.83c6.94,0,11.98,5.04,11.98,11.98v107.31c0,6.94-5.04,11.98-11.98,11.98h-10.47c-4.33,0-8.28-1.9-10.88-5.23l-57.38-69.41v62.66c0,6.94-5.04,11.98-11.98,11.98h-9.35c-6.94,0-11.98-5.04-11.98-11.98v-107.31c0-6.94,5.04-11.98,11.98-11.98h10.15c4.33,0,8.29,1.9,10.88,5.24l57.7,69.87v-63.12c0-6.94,5.04-11.98,11.98-11.98h9.35M408.62,713.83h-9.35c-16.9,0-31.46,8.5-39.72,21.55l-2.75-3.33c-9.27-11.59-23.12-18.22-38.09-18.22h-10.15c-26.35,0-46.98,20.64-46.98,46.98v107.31c0,26.35,20.64,46.98,46.98,46.98h9.35c16.81,0,31.29-8.4,39.58-21.32l2.59,3.13c9.27,11.57,23.11,18.2,38.07,18.2h10.47c26.35,0,46.98-20.64,46.98-46.98v-107.31c0-26.35-20.64-46.98-46.98-46.98h0Z"/>
            <path class="cls-1" d="M408.62,748.83c6.94,0,11.98,5.04,11.98,11.98v107.31c0,6.94-5.04,11.98-11.98,11.98h-10.47c-4.33,0-8.28-1.9-10.88-5.23l-57.38-69.41v62.66c0,6.94-5.04,11.98-11.98,11.98h-9.35c-6.94,0-11.98-5.04-11.98-11.98v-107.31c0-6.94,5.04-11.98,11.98-11.98h10.15c4.33,0,8.29,1.9,10.88,5.24l57.7,69.87v-63.12c0-6.94,5.04-11.98,11.98-11.98h9.35M408.62,734.83h-9.35c-7.1,0-13.67,2.66-18.49,7.49-4.83,4.83-7.49,11.4-7.49,18.49v24.18l-32.8-39.71c-5.27-6.64-13.19-10.45-21.78-10.45h-10.15c-7.1,0-13.67,2.66-18.49,7.49-4.83,4.83-7.49,11.4-7.49,18.49v107.31c0,7.1,2.66,13.67,7.49,18.49,4.83,4.83,11.4,7.49,18.49,7.49h9.35c7.1,0,13.67-2.66,18.49-7.49,4.83-4.83,7.49-11.4,7.49-18.49v-23.75l32.48,39.29c5.27,6.64,13.19,10.44,21.77,10.44h10.47c7.1,0,13.67-2.66,18.49-7.49,4.83-4.83,7.49-11.4,7.49-18.49v-107.31c0-7.1-2.66-13.67-7.49-18.49-4.83-4.83-11.4-7.49-18.49-7.49h0Z"/>
          </g>
          <g>
            <path class="cls-3" d="M523.65,897.6c-16.53,0-29.48-12.95-29.48-29.48v-68.96h-12.57c-16.53,0-29.48-12.95-29.48-29.48v-8.86c0-16.53,12.95-29.48,29.48-29.48h93.61c16.53,0,29.48,12.95,29.48,29.48v8.86c0,16.53-12.95,29.48-29.48,29.48h-12.57v68.96c0,16.53-12.95,29.48-29.48,29.48h-9.51Z"/>
            <path class="cls-2" d="M575.21,748.83c6.94,0,11.98,5.04,11.98,11.98v8.86c0,6.94-5.04,11.98-11.98,11.98h-30.07v86.46c0,6.94-5.04,11.98-11.98,11.98h-9.51c-6.94,0-11.98-5.04-11.98-11.98v-86.46h-30.07c-6.94,0-11.98-5.04-11.98-11.98v-8.86c0-6.94,5.04-11.98,11.98-11.98h93.61M575.21,713.83h-93.61c-26.35,0-46.98,20.64-46.98,46.98v8.86c0,24.68,18.11,44.35,42.05,46.74v51.71c0,26.35,20.64,46.98,46.98,46.98h9.51c26.35,0,46.98-20.64,46.98-46.98v-51.71c23.95-2.39,42.05-22.06,42.05-46.74v-8.86c0-26.35-20.64-46.98-46.98-46.98h0Z"/>
            <path class="cls-1" d="M575.21,748.83c6.94,0,11.98,5.04,11.98,11.98v8.86c0,6.94-5.04,11.98-11.98,11.98h-30.07v86.46c0,6.94-5.04,11.98-11.98,11.98h-9.51c-6.94,0-11.98-5.04-11.98-11.98v-86.46h-30.07c-6.94,0-11.98-5.04-11.98-11.98v-8.86c0-6.94,5.04-11.98,11.98-11.98h93.61M575.21,734.83h-93.61c-7.1,0-13.67,2.66-18.49,7.49-4.83,4.83-7.49,11.4-7.49,18.49v8.86c0,7.1,2.66,13.67,7.49,18.49,4.83,4.83,11.4,7.49,18.49,7.49h16.07v72.46c0,7.1,2.66,13.67,7.49,18.49,4.83,4.83,11.4,7.49,18.49,7.49h9.51c7.1,0,13.67-2.66,18.49-7.49,4.83-4.83,7.49-11.4,7.49-18.49v-72.46h16.07c7.1,0,13.67-2.66,18.49-7.49,4.83-4.83,7.49-11.4,7.49-18.49v-8.86c0-7.1-2.66-13.67-7.49-18.49-4.83-4.83-11.4-7.49-18.49-7.49h0Z"/>
          </g>
          <g>
            <path class="cls-3" d="M737.63,897.6c-16.53,0-29.48-12.95-29.48-29.48v-21.11h-20.31v21.11c0,16.53-12.95,29.48-29.48,29.48h-9.34c-16.53,0-29.48-12.95-29.48-29.48v-107.31c0-16.53,12.95-29.48,29.48-29.48h9.34c16.53,0,29.48,12.95,29.48,29.48v19.01h20.31v-19.01c0-16.53,12.95-29.48,29.48-29.48h9.51c16.53,0,29.48,12.95,29.48,29.48v107.31c0,16.53-12.95,29.48-29.48,29.48h-9.51Z"/>
            <path class="cls-2" d="M747.14,748.83c6.94,0,11.98,5.04,11.98,11.98v107.31c0,6.94-5.04,11.98-11.98,11.98h-9.51c-6.94,0-11.98-5.04-11.98-11.98v-38.61h-55.31v38.61c0,6.94-5.04,11.98-11.98,11.98h-9.34c-6.94,0-11.98-5.04-11.98-11.98v-107.31c0-6.94,5.04-11.98,11.98-11.98h9.34c6.94,0,11.98,5.04,11.98,11.98v36.51h55.31v-36.51c0-6.94,5.04-11.98,11.98-11.98h9.51M747.14,713.83h-9.51c-16.85,0-31.36,8.44-39.64,21.41-8.27-12.97-22.79-21.41-39.64-21.41h-9.34c-26.35,0-46.98,20.64-46.98,46.98v107.31c0,26.35,20.64,46.98,46.98,46.98h9.34c16.85,0,31.36-8.44,39.64-21.41,8.27,12.97,22.79,21.41,39.64,21.41h9.51c26.35,0,46.98-20.64,46.98-46.98v-107.31c0-26.35-20.64-46.98-46.98-46.98h0Z"/>
            <path class="cls-1" d="M747.14,748.83c6.94,0,11.98,5.04,11.98,11.98v107.31c0,6.94-5.04,11.98-11.98,11.98h-9.51c-6.94,0-11.98-5.04-11.98-11.98v-38.61h-55.31v38.61c0,6.94-5.04,11.98-11.98,11.98h-9.34c-6.94,0-11.98-5.04-11.98-11.98v-107.31c0-6.94,5.04-11.98,11.98-11.98h9.34c6.94,0,11.98,5.04,11.98,11.98v36.51h55.31v-36.51c0-6.94,5.04-11.98,11.98-11.98h9.51M747.14,734.83h-9.51c-7.1,0-13.67,2.66-18.49,7.49-4.83,4.83-7.49,11.4-7.49,18.49v22.51h-27.31v-22.51c0-7.1-2.66-13.67-7.49-18.49-4.83-4.83-11.4-7.49-18.49-7.49h-9.34c-7.1,0-13.67,2.66-18.49,7.49-4.83,4.83-7.49,11.4-7.49,18.49v107.31c0,7.1,2.66,13.67,7.49,18.49,4.83,4.83,11.4,7.49,18.49,7.49h9.34c7.1,0,13.67-2.66,18.49-7.49,4.83-4.83,7.49-11.4,7.49-18.49v-24.61h27.31v24.61c0,7.1,2.66,13.67,7.49,18.49,4.83,4.83,11.4,7.49,18.49,7.49h9.51c7.1,0,13.67-2.66,18.49-7.49,4.83-4.83,7.49-11.4,7.49-18.49v-107.31c0-7.1-2.66-13.67-7.49-18.49-4.83-4.83-11.4-7.49-18.49-7.49h0Z"/>
          </g>
          <g>
            <path class="cls-3" d="M826.62,897.6c-16.53,0-29.48-12.95-29.48-29.48v-107.31c0-16.53,12.95-29.48,29.48-29.48h89.74c16.53,0,29.48,12.95,29.48,29.48v8.86c0,15.48-11.36,27.82-26.38,29.33,1.12,3.15,1.73,6.56,1.73,10.15v8.38c0,4.43-.93,8.59-2.6,12.33,15.45,1.1,27.26,13.62,27.26,29.4v8.86c0,16.53-12.95,29.48-29.48,29.48h-89.74Z"/>
            <path class="cls-2" d="M916.37,748.83c6.94,0,11.98,5.04,11.98,11.98v8.86c0,6.94-5.04,11.98-11.98,11.98h-68.42v15.51h43.76c6.94,0,11.98,5.04,11.98,11.98v8.38c0,6.94-5.04,11.98-11.98,11.98h-43.76v17.76h68.42c6.94,0,11.98,5.04,11.98,11.98v8.86c0,6.94-5.04,11.98-11.98,11.98h-89.74c-6.94,0-11.98-5.04-11.98-11.98v-107.31c0-6.94,5.04-11.98,11.98-11.98h89.74M916.37,713.83h-89.74c-26.35,0-46.98,20.64-46.98,46.98v107.31c0,26.35,20.64,46.98,46.98,46.98h89.74c26.35,0,46.98-20.64,46.98-46.98v-8.86c0-18.21-9.86-33.69-24.65-41.52,0-.07,0-.14,0-.21v-6.33c14.79-7.83,24.65-23.31,24.65-41.52v-8.86c0-26.35-20.64-46.98-46.98-46.98h0Z"/>
            <path class="cls-1" d="M916.37,748.83c6.94,0,11.98,5.04,11.98,11.98v8.86c0,6.94-5.04,11.98-11.98,11.98h-68.42v15.51h43.76c6.94,0,11.98,5.04,11.98,11.98v8.38c0,6.94-5.04,11.98-11.98,11.98h-43.76v17.76h68.42c6.94,0,11.98,5.04,11.98,11.98v8.86c0,6.94-5.04,11.98-11.98,11.98h-89.74c-6.94,0-11.98-5.04-11.98-11.98v-107.31c0-6.94,5.04-11.98,11.98-11.98h89.74M916.37,734.83h-89.74c-7.1,0-13.67,2.66-18.49,7.49-4.83,4.83-7.49,11.4-7.49,18.49v107.31c0,7.1,2.66,13.67,7.49,18.49,4.83,4.83,11.4,7.49,18.49,7.49h89.74c7.1,0,13.67-2.66,18.49-7.49,4.83-4.83,7.49-11.4,7.49-18.49v-8.86c0-7.1-2.66-13.67-7.49-18.49-4.83-4.83-11.4-7.49-18.49-7.49h-3.78c3.32-4.44,5.11-9.92,5.11-15.75v-8.38c0-4.88-1.26-9.51-3.61-13.49h2.28c7.1,0,13.67-2.66,18.49-7.49,4.83-4.83,7.49-11.4,7.49-18.49v-8.86c0-7.1-2.66-13.67-7.49-18.49-4.83-4.83-11.4-7.49-18.49-7.49h0Z"/>
          </g>
        </g>
      </g>
    </g>
  </g>
</svg>