<?xml version="1.0" encoding="UTF-8"?>
<svg id="Heart" xmlns="http://www.w3.org/2000/svg" viewBox="0 0 1920 1920">
  <defs>
    <style>
      .cls-1 {
        fill: #583593;
      }

      .cls-2 {
        fill: #c5fbf0;
      }
    </style>
  </defs>
  <g id="Layer_12" data-name="Layer 12">
    <g>
      <path class="cls-2" d="M1340.4,342.29c-151.32-17.35-293.1,47.77-380.39,159.67-87.31-111.9-229.08-177.02-380.4-159.67-231.15,26.49-397.05,235.35-370.56,466.49,37.08,323.46,326.43,549.1,575.29,685.48,62.68,34.35,122.8,63.03,175.66,86.19,52.86-23.15,112.98-51.84,175.66-86.2,248.87-136.37,538.22-362.01,575.3-685.47,26.49-231.14-139.41-440.01-370.56-466.49Z"/>
      <path class="cls-1" d="M960,1650.45c-9.57,0-19.14-1.96-28.09-5.88-62.65-27.44-123.62-57.36-181.21-88.92-156.22-85.61-285.48-181.76-384.2-285.79-132.12-139.22-208.49-291.67-227-453.11-7.55-65.86-1.96-131.27,16.61-194.4,17.92-60.95,47.12-117.17,86.79-167.1,39.67-49.94,87.82-91.1,143.13-122.35,57.3-32.37,119.75-52.61,185.61-60.16,85.13-9.76,171.53,2.9,249.85,36.61,50.9,21.91,97.81,52.4,138.52,89.77,40.71-37.37,87.61-67.85,138.51-89.77,78.32-33.72,164.72-46.38,249.86-36.61,65.86,7.55,128.3,27.79,185.6,60.16,55.31,31.25,103.47,72.41,143.13,122.35,39.67,49.94,68.87,106.16,86.79,167.1,18.57,63.14,24.16,128.54,16.61,194.4-18.51,161.44-94.88,313.89-227,453.11-98.73,104.03-227.99,200.18-384.21,285.78-57.67,31.61-118.65,61.53-181.22,88.93-8.95,3.92-18.51,5.88-28.08,5.88ZM627.73,409.54c-13.38,0-26.78.76-40.15,2.29-93.22,10.68-176.7,57.03-235.06,130.5-58.36,73.47-84.62,165.27-73.93,258.48,7.81,68.09,28.98,135.29,62.92,199.73,31.12,59.08,73.7,117.27,126.54,172.95,88.72,93.49,206.45,180.76,349.93,259.38,45.36,24.86,93.02,48.65,142.02,70.93,48.94-22.24,96.59-46.04,142.01-70.93,143.48-78.62,261.22-165.89,349.94-259.38,52.84-55.68,95.41-113.86,126.54-172.95,33.95-64.44,55.12-131.64,62.92-199.73,10.68-93.21-15.57-185.01-73.93-258.48-58.36-73.47-141.84-119.81-235.05-130.5,0,0,0,0,0,0-60.9-6.98-122.64,2.05-178.55,26.12-54.32,23.39-102.28,60.41-138.67,107.06-13.26,17-33.62,26.94-55.19,26.94-21.56,0-41.93-9.94-55.19-26.94-36.4-46.66-84.36-83.68-138.69-107.07-43.64-18.78-90.83-28.41-138.4-28.41Z"/>
    </g>
  </g>
</svg>