<?xml version="1.0" encoding="UTF-8"?>
<svg id="Star_Icon" data-name="Star Icon" xmlns="http://www.w3.org/2000/svg" viewBox="0 0 1920 1920">
  <defs>
    <style>
      .cls-1 {
        fill: #583593;
      }

      .cls-2 {
        fill: #c5fbf0;
      }
    </style>
  </defs>
  <path class="cls-2" d="M1276.98,1662.83c-31.6,0-62.7-7.16-92.45-21.28l-196.1-93.09c-9-4.27-18.72-6.41-28.43-6.41s-19.44,2.13-28.43,6.41l-196.1,93.09c-29.74,14.12-60.85,21.28-92.46,21.28-61.57,0-120.71-27.12-162.25-74.4-40.89-46.53-58.95-106.51-50.85-168.89l27.93-215.27c2.56-19.75-3.89-39.61-17.57-54.08l-149.13-157.74c-54.94-58.11-72.98-138.2-48.28-214.25,24.71-76.05,86.39-130.24,164.99-144.96l213.36-39.96c19.58-3.67,36.47-15.94,46.01-33.42l103.93-190.57c38.28-70.2,108.89-112.12,188.85-112.12,0,0,0,0,0,0,79.96,0,150.56,41.91,188.85,112.12l103.93,190.57c9.54,17.48,26.43,29.76,46.01,33.42l213.36,39.96c78.6,14.72,140.27,68.91,164.98,144.96,24.71,76.05,6.66,156.14-48.27,214.25l-149.13,157.74c-13.68,14.47-20.13,34.33-17.57,54.08l27.93,215.27c8.09,62.36-9.97,122.34-50.85,168.87-41.55,47.29-100.69,74.41-162.27,74.41Z"/>
  <path class="cls-1" d="M960,323.48c55.32,0,104.16,28.99,130.64,77.56l103.93,190.57c19.07,34.97,52.85,59.52,92.01,66.85l213.36,39.96c54.37,10.18,97.04,47.67,114.13,100.28,17.09,52.61,4.61,108.02-33.39,148.21l-149.13,157.74c-27.37,28.95-40.27,68.66-35.14,108.16l27.93,215.27c7.18,55.35-15.02,93.95-34.91,116.59-28.96,32.96-69.94,51.86-112.44,51.86-21.69,0-43.24-5-64.03-14.87l-196.1-93.09c-17.99-8.54-37.43-12.81-56.86-12.81s-38.87,4.27-56.86,12.81l-196.1,93.09c-20.79,9.87-42.33,14.87-64.03,14.87-42.51,0-83.49-18.9-112.45-51.86-19.89-22.64-42.09-61.24-34.91-116.59l27.93-215.27c5.12-39.5-7.78-79.22-35.14-108.16l-149.13-157.74c-38-40.2-50.49-95.6-33.39-148.21,17.09-52.61,59.76-90.1,114.13-100.28l213.36-39.96c39.15-7.33,72.94-31.88,92.01-66.85l103.93-190.57c26.49-48.56,75.32-77.56,130.64-77.56M960,190.87c-96.86,0-193.73,48.89-247.06,146.67l-103.93,190.57-213.36,39.96c-218.95,41-305.72,308.06-152.69,469.93l149.13,157.74-27.93,215.27c-22.96,176.99,118.28,318.12,278.86,318.12,39.84,0,80.89-8.69,120.89-27.68l196.1-93.09,196.1,93.09c40.02,19,81.04,27.68,120.89,27.68,160.56,0,301.82-141.14,278.86-318.12l-27.93-215.27,149.13-157.74c153.03-161.87,66.26-428.93-152.69-469.93l-213.36-39.96-103.93-190.57c-53.33-97.78-150.19-146.67-247.06-146.67h0Z"/>
</svg>